<mxfile host="app.diagrams.net" modified="2021-01-16T11:45:27.760Z" agent="5.0 (Windows)" etag="lOoha-_HsVerT9uyPP5k" version="14.2.4" type="github">
  <diagram id="C5RBs43oDa-KdzZeNtuy" name="Page-1">
    <mxGraphModel dx="1038" dy="547" grid="1" gridSize="10" guides="1" tooltips="1" connect="1" arrows="1" fold="1" page="1" pageScale="1" pageWidth="827" pageHeight="1169" math="0" shadow="0">
      <root>
        <mxCell id="WIyWlLk6GJQsqaUBKTNV-0" />
        <mxCell id="WIyWlLk6GJQsqaUBKTNV-1" parent="WIyWlLk6GJQsqaUBKTNV-0" />
        <mxCell id="KxpvpoARknzrcg4h2MVn-0" value="" style="ellipse;whiteSpace=wrap;html=1;aspect=fixed;fillColor=#000000;" vertex="1" parent="WIyWlLk6GJQsqaUBKTNV-1">
          <mxGeometry x="370" y="20" width="30" height="30" as="geometry" />
        </mxCell>
        <mxCell id="KxpvpoARknzrcg4h2MVn-1" value="" style="endArrow=classic;html=1;exitX=0.5;exitY=1;exitDx=0;exitDy=0;" edge="1" parent="WIyWlLk6GJQsqaUBKTNV-1" source="KxpvpoARknzrcg4h2MVn-0" target="KxpvpoARknzrcg4h2MVn-2">
          <mxGeometry width="50" height="50" relative="1" as="geometry">
            <mxPoint x="390" y="280" as="sourcePoint" />
            <mxPoint x="385" y="90" as="targetPoint" />
          </mxGeometry>
        </mxCell>
        <mxCell id="KxpvpoARknzrcg4h2MVn-2" value="Regressziós modellek listázása" style="ellipse;whiteSpace=wrap;html=1;" vertex="1" parent="WIyWlLk6GJQsqaUBKTNV-1">
          <mxGeometry x="333.13" y="80" width="103.75" height="60" as="geometry" />
        </mxCell>
        <mxCell id="KxpvpoARknzrcg4h2MVn-3" value="Program indítása" style="text;html=1;strokeColor=none;fillColor=none;align=center;verticalAlign=middle;whiteSpace=wrap;rounded=0;" vertex="1" parent="WIyWlLk6GJQsqaUBKTNV-1">
          <mxGeometry x="414" y="25" width="40" height="20" as="geometry" />
        </mxCell>
        <mxCell id="KxpvpoARknzrcg4h2MVn-4" value="" style="endArrow=classic;html=1;exitX=0.5;exitY=1;exitDx=0;exitDy=0;" edge="1" parent="WIyWlLk6GJQsqaUBKTNV-1" source="KxpvpoARknzrcg4h2MVn-2" target="KxpvpoARknzrcg4h2MVn-5">
          <mxGeometry width="50" height="50" relative="1" as="geometry">
            <mxPoint x="390" y="280" as="sourcePoint" />
            <mxPoint x="385" y="180" as="targetPoint" />
          </mxGeometry>
        </mxCell>
        <mxCell id="KxpvpoARknzrcg4h2MVn-5" value="Regressziós modell kiválasztása" style="ellipse;whiteSpace=wrap;html=1;" vertex="1" parent="WIyWlLk6GJQsqaUBKTNV-1">
          <mxGeometry x="331.88" y="160" width="108.12" height="60" as="geometry" />
        </mxCell>
        <mxCell id="KxpvpoARknzrcg4h2MVn-6" value="" style="endArrow=classic;html=1;exitX=0.5;exitY=1;exitDx=0;exitDy=0;" edge="1" parent="WIyWlLk6GJQsqaUBKTNV-1" source="KxpvpoARknzrcg4h2MVn-5" target="KxpvpoARknzrcg4h2MVn-7">
          <mxGeometry width="50" height="50" relative="1" as="geometry">
            <mxPoint x="390" y="280" as="sourcePoint" />
            <mxPoint x="384" y="250" as="targetPoint" />
          </mxGeometry>
        </mxCell>
        <mxCell id="KxpvpoARknzrcg4h2MVn-7" value="Sikeres kiválasztás?" style="rhombus;whiteSpace=wrap;html=1;" vertex="1" parent="WIyWlLk6GJQsqaUBKTNV-1">
          <mxGeometry x="343.43" y="235" width="85.01" height="90" as="geometry" />
        </mxCell>
        <mxCell id="KxpvpoARknzrcg4h2MVn-10" value="" style="endArrow=classic;html=1;exitX=0;exitY=0.5;exitDx=0;exitDy=0;entryX=0;entryY=0.5;entryDx=0;entryDy=0;" edge="1" parent="WIyWlLk6GJQsqaUBKTNV-1" source="KxpvpoARknzrcg4h2MVn-7" target="KxpvpoARknzrcg4h2MVn-5">
          <mxGeometry width="50" height="50" relative="1" as="geometry">
            <mxPoint x="390" y="280" as="sourcePoint" />
            <mxPoint x="440" y="230" as="targetPoint" />
            <Array as="points">
              <mxPoint x="290" y="280" />
              <mxPoint x="290" y="190" />
            </Array>
          </mxGeometry>
        </mxCell>
        <mxCell id="KxpvpoARknzrcg4h2MVn-11" value="Nem" style="text;html=1;strokeColor=none;fillColor=none;align=center;verticalAlign=middle;whiteSpace=wrap;rounded=0;" vertex="1" parent="WIyWlLk6GJQsqaUBKTNV-1">
          <mxGeometry x="291.88" y="230" width="40" height="20" as="geometry" />
        </mxCell>
        <mxCell id="KxpvpoARknzrcg4h2MVn-13" value="" style="endArrow=classic;html=1;exitX=1;exitY=0.5;exitDx=0;exitDy=0;entryX=0;entryY=0.5;entryDx=0;entryDy=0;" edge="1" parent="WIyWlLk6GJQsqaUBKTNV-1" source="KxpvpoARknzrcg4h2MVn-7" target="KxpvpoARknzrcg4h2MVn-17">
          <mxGeometry width="50" height="50" relative="1" as="geometry">
            <mxPoint x="390" y="280" as="sourcePoint" />
            <mxPoint x="500" y="280" as="targetPoint" />
          </mxGeometry>
        </mxCell>
        <mxCell id="KxpvpoARknzrcg4h2MVn-15" value="Igen" style="text;html=1;strokeColor=none;fillColor=none;align=center;verticalAlign=middle;whiteSpace=wrap;rounded=0;" vertex="1" parent="WIyWlLk6GJQsqaUBKTNV-1">
          <mxGeometry x="428.44" y="255" width="40" height="20" as="geometry" />
        </mxCell>
        <mxCell id="KxpvpoARknzrcg4h2MVn-17" value="Adatbázisok listázása" style="ellipse;whiteSpace=wrap;html=1;fillColor=#FFFFFF;" vertex="1" parent="WIyWlLk6GJQsqaUBKTNV-1">
          <mxGeometry x="480" y="255" width="90" height="50" as="geometry" />
        </mxCell>
        <mxCell id="KxpvpoARknzrcg4h2MVn-18" value="" style="endArrow=classic;html=1;exitX=1;exitY=0.5;exitDx=0;exitDy=0;entryX=0;entryY=0.5;entryDx=0;entryDy=0;" edge="1" parent="WIyWlLk6GJQsqaUBKTNV-1" source="KxpvpoARknzrcg4h2MVn-17" target="KxpvpoARknzrcg4h2MVn-19">
          <mxGeometry width="50" height="50" relative="1" as="geometry">
            <mxPoint x="390" y="280" as="sourcePoint" />
            <mxPoint x="640" y="280" as="targetPoint" />
          </mxGeometry>
        </mxCell>
        <mxCell id="KxpvpoARknzrcg4h2MVn-19" value="Adatbázis kiválasztása" style="ellipse;whiteSpace=wrap;html=1;fillColor=#FFFFFF;" vertex="1" parent="WIyWlLk6GJQsqaUBKTNV-1">
          <mxGeometry x="600" y="250" width="90" height="60" as="geometry" />
        </mxCell>
        <mxCell id="KxpvpoARknzrcg4h2MVn-20" value="" style="endArrow=classic;html=1;exitX=1;exitY=0.5;exitDx=0;exitDy=0;" edge="1" parent="WIyWlLk6GJQsqaUBKTNV-1" source="KxpvpoARknzrcg4h2MVn-19" target="KxpvpoARknzrcg4h2MVn-21">
          <mxGeometry width="50" height="50" relative="1" as="geometry">
            <mxPoint x="390" y="280" as="sourcePoint" />
            <mxPoint x="770" y="280" as="targetPoint" />
          </mxGeometry>
        </mxCell>
        <mxCell id="KxpvpoARknzrcg4h2MVn-21" value="Sikeres kiválasztás?" style="rhombus;whiteSpace=wrap;html=1;" vertex="1" parent="WIyWlLk6GJQsqaUBKTNV-1">
          <mxGeometry x="710" y="235" width="90" height="90" as="geometry" />
        </mxCell>
        <mxCell id="KxpvpoARknzrcg4h2MVn-23" value="" style="endArrow=classic;html=1;exitX=0.5;exitY=0;exitDx=0;exitDy=0;entryX=0.5;entryY=0;entryDx=0;entryDy=0;" edge="1" parent="WIyWlLk6GJQsqaUBKTNV-1" source="KxpvpoARknzrcg4h2MVn-21" target="KxpvpoARknzrcg4h2MVn-19">
          <mxGeometry width="50" height="50" relative="1" as="geometry">
            <mxPoint x="390" y="280" as="sourcePoint" />
            <mxPoint x="440" y="230" as="targetPoint" />
            <Array as="points">
              <mxPoint x="755" y="200" />
              <mxPoint x="645" y="200" />
            </Array>
          </mxGeometry>
        </mxCell>
        <mxCell id="KxpvpoARknzrcg4h2MVn-24" value="Nem" style="text;html=1;strokeColor=none;fillColor=none;align=center;verticalAlign=middle;whiteSpace=wrap;rounded=0;" vertex="1" parent="WIyWlLk6GJQsqaUBKTNV-1">
          <mxGeometry x="680" y="200" width="40" height="20" as="geometry" />
        </mxCell>
        <mxCell id="KxpvpoARknzrcg4h2MVn-25" value="" style="ellipse;whiteSpace=wrap;html=1;aspect=fixed;fillColor=#000000;" vertex="1" parent="WIyWlLk6GJQsqaUBKTNV-1">
          <mxGeometry x="740" y="350" width="30" height="30" as="geometry" />
        </mxCell>
        <mxCell id="KxpvpoARknzrcg4h2MVn-26" value="" style="endArrow=classic;html=1;exitX=0.5;exitY=1;exitDx=0;exitDy=0;entryX=0.5;entryY=0;entryDx=0;entryDy=0;" edge="1" parent="WIyWlLk6GJQsqaUBKTNV-1" source="KxpvpoARknzrcg4h2MVn-21" target="KxpvpoARknzrcg4h2MVn-25">
          <mxGeometry width="50" height="50" relative="1" as="geometry">
            <mxPoint x="390" y="280" as="sourcePoint" />
            <mxPoint x="440" y="230" as="targetPoint" />
          </mxGeometry>
        </mxCell>
        <mxCell id="KxpvpoARknzrcg4h2MVn-27" value="Igen" style="text;html=1;strokeColor=none;fillColor=none;align=center;verticalAlign=middle;whiteSpace=wrap;rounded=0;" vertex="1" parent="WIyWlLk6GJQsqaUBKTNV-1">
          <mxGeometry x="710" y="320" width="40" height="20" as="geometry" />
        </mxCell>
        <mxCell id="KxpvpoARknzrcg4h2MVn-28" value="Kész" style="text;html=1;strokeColor=none;fillColor=none;align=center;verticalAlign=middle;whiteSpace=wrap;rounded=0;" vertex="1" parent="WIyWlLk6GJQsqaUBKTNV-1">
          <mxGeometry x="770" y="355" width="40" height="20" as="geometry" />
        </mxCell>
      </root>
    </mxGraphModel>
  </diagram>
</mxfile>
